<svg width="198" height="36" viewBox="0 0 198 36" fill="none" xmlns="http://www.w3.org/2000/svg">
<g clip-path="url(#clip0_460_6067)">
<path d="M197.053 21.9328C195.408 21.9233 193.773 21.9138 192.127 21.9138C189.832 21.9138 187.526 21.9138 185.23 21.9138C185.053 21.9138 184.875 21.9138 184.668 21.9138C184.728 23.3805 185.004 24.7234 185.93 25.8566C186.965 27.1233 188.422 27.371 189.969 27.2377C191.881 27.0662 193.201 26.0852 193.881 24.3519C193.98 24.1043 194.098 24.0091 194.374 24.0186C195.162 24.0377 195.95 24.0282 196.729 24.0282C196.837 26.2281 194.028 28.9233 191.082 29.4471C186.245 30.3043 182.707 27.7424 181.811 23.771C181.792 23.8472 181.762 23.8757 181.772 23.9138C181.998 26.2948 180.196 28.5329 177.584 29.1233C175.486 29.59 173.378 29.5996 171.309 28.9805C169.131 28.3329 167.604 26.1996 167.654 23.9519C168.55 23.9519 169.447 23.9519 170.362 23.9519C170.422 24.2091 170.471 24.4757 170.53 24.7329C170.766 25.7233 171.357 26.4376 172.333 26.7805C174.067 27.39 175.801 27.39 177.516 26.6567C177.742 26.5614 177.949 26.4281 178.136 26.2757C179.388 25.2758 179.131 23.4472 177.605 22.9424C176.096 22.4566 174.53 22.1519 173.003 21.7424C172.195 21.5233 171.388 21.3139 170.619 20.9995C167.899 19.8662 167.229 17.0186 169.122 14.7996C169.831 13.9614 170.747 13.4091 171.811 13.1138C173.791 12.5614 175.772 12.5805 177.723 13.1996C179.732 13.8471 181.121 15.5424 181.191 17.352C181.191 17.4281 181.191 17.5043 181.191 17.6186C180.294 17.6186 179.417 17.6186 178.521 17.6186C178.511 17.609 178.471 17.59 178.471 17.5614C178.235 16.1043 177.279 15.3615 175.841 15.1233C174.825 14.9519 173.811 14.9043 172.816 15.1805C172.432 15.2852 172.037 15.4567 171.722 15.6948C170.797 16.39 170.757 17.7043 171.693 18.3614C172.284 18.7805 173.013 19.0567 173.732 19.2567C175.387 19.7233 177.072 20.0758 178.727 20.5233C179.525 20.7329 180.284 21.0662 180.835 21.6948C181.161 22.0757 181.407 22.5234 181.683 22.9329C181.683 21.99 181.614 21.0186 181.693 20.0662C181.861 18.0281 182.639 16.2186 184.166 14.7614C187.033 12.009 192.166 12.0281 195.014 14.7996C196.294 16.0472 196.758 17.6376 196.955 19.3234C196.974 19.5234 197.024 19.7233 197.053 19.9328C197.053 20.5996 197.053 21.2662 197.053 21.9328ZM194.068 19.7328C194.206 16.9615 192.196 15.0186 189.299 15.0566C186.511 15.0948 184.699 17.5709 184.787 19.7328C187.89 19.7328 190.984 19.7328 194.068 19.7328Z" fill="#333333"/>
<path d="M47.4199 28.8283C47.4199 21.2093 47.4199 13.6474 47.4199 6.04737C47.5283 6.02832 47.6367 5.99023 47.7451 5.99023C51.1935 5.99975 54.6419 5.9807 58.0805 6.04737C60.1692 6.08546 62.2284 6.40927 64.2088 7.08547C67.47 8.19976 69.5391 10.3426 70.278 13.6378C70.8495 16.1807 70.9579 18.7331 70.2485 21.2664C69.0957 25.3807 65.598 28.2474 61.184 28.476C57.2528 28.6855 53.3118 28.7141 49.3707 28.8188C48.75 28.8379 48.1096 28.8283 47.4199 28.8283ZM54.2379 24.3426C56.1198 24.314 57.9622 24.4092 59.7653 23.9712C61.7161 23.495 62.9871 22.3045 63.4896 20.4188C63.992 18.5236 64.0216 16.6093 63.5191 14.7235C63.0462 12.9617 62.0018 11.6473 60.1594 11.0284C58.2381 10.3807 56.2479 10.5902 54.2478 10.5712C54.2379 15.1807 54.2379 19.7235 54.2379 24.3426Z" fill="#333333"/>
<path d="M111.156 18.6095C111.206 17.7904 111.206 17.0476 110.822 16.3714C110.437 15.6857 109.767 15.5047 109.019 15.5429C108.24 15.5809 107.678 15.9618 107.403 16.6666C107.255 17.0571 107.206 17.4857 107.107 17.9428C105.176 17.9428 103.215 17.9428 101.166 17.9428C101.225 17.5333 101.245 17.1333 101.333 16.7428C101.698 15.0571 102.732 13.8571 104.388 13.2857C105.422 12.9238 106.536 12.6857 107.629 12.5714C109.58 12.3714 111.531 12.4095 113.413 13.0666C115.787 13.8952 117.029 15.619 117.039 18.0667C117.058 20.8571 117.078 23.6476 117.127 26.4476C117.147 27.219 117.284 27.9905 117.373 28.8C117.019 28.8 116.635 28.8 116.241 28.8C114.763 28.8 113.285 28.7904 111.807 28.8095C111.452 28.819 111.295 28.6952 111.255 28.3713C111.206 28 111.137 27.6191 111.077 27.2095C111.019 27.2381 110.959 27.2572 110.92 27.2952C109.029 29.4475 104.614 29.8 102.092 28.1904C100.417 27.1237 100.023 25.5428 100.121 23.7523C100.23 21.819 101.274 20.5333 103.038 19.7428C104.831 18.9428 106.752 18.7142 108.693 18.6095C109.521 18.5809 110.319 18.6095 111.156 18.6095ZM111.216 21.5618C109.895 21.5428 108.664 21.5143 107.501 22.0095C106.486 22.438 106.053 23.3333 106.309 24.3999C106.516 25.2571 107.353 25.8475 108.378 25.8286C109.255 25.8095 109.964 25.4572 110.457 24.7429C111.127 23.7905 111.226 22.7143 111.216 21.5618Z" fill="#333333"/>
<path d="M87.0089 17.086C87.0976 20.9813 86.8119 24.8765 87.3735 28.8003C86.2601 28.8003 85.1074 28.8003 83.9645 28.8003C83.2255 28.8003 82.4866 28.7908 81.7476 28.8099C81.4619 28.8194 81.3239 28.7241 81.2845 28.4575C81.2254 28.0479 81.1466 27.6479 81.0776 27.2194C80.7426 27.4955 80.4471 27.7908 80.1121 28.0289C78.0135 29.5051 74.4172 29.6194 72.2201 28.2765C70.9393 27.4955 70.2299 26.3718 70.1708 24.8956C70.1511 24.3432 70.1412 23.7813 70.2102 23.2384C70.3974 21.8385 71.1954 20.8098 72.4369 20.0955C74.0133 19.1908 75.7769 18.8765 77.5602 18.7241C78.5849 18.6385 79.6293 18.6385 80.654 18.6004C80.8116 18.5908 80.9692 18.5813 81.2451 18.5718C81.1564 17.9527 81.1367 17.3718 80.989 16.8099C80.7821 16.0194 80.2205 15.6289 79.383 15.5623C78.4667 15.4956 77.7868 15.8384 77.442 16.5718C77.3435 16.7813 77.2745 17.0194 77.2252 17.2479C77.176 17.467 77.1661 17.6861 77.1366 17.9527C75.166 17.9527 73.1955 17.9527 71.1659 17.9527C71.225 16.2766 71.7866 14.8575 73.2448 13.867C74.2793 13.1622 75.4616 12.8385 76.6932 12.6766C78.644 12.4194 80.5948 12.3717 82.5161 12.8289C84.6443 13.3241 86.2601 14.4194 86.8513 16.5908C86.9005 16.7718 86.9695 16.9432 87.0286 17.1242L87.0089 17.086ZM81.186 21.6099C80.1022 21.4289 78.2696 21.6384 77.442 22.0289C76.4863 22.4765 76.0528 23.3432 76.2893 24.3623C76.4962 25.2384 77.3041 25.8385 78.3287 25.829C79.2253 25.8194 79.9544 25.467 80.4569 24.7432C81.1072 23.7908 81.2254 22.7146 81.186 21.6099Z" fill="#333333"/>
<path d="M132.489 18.2098C128.587 18.2098 124.764 18.2098 120.882 18.2098C120.882 21.7431 120.882 25.2479 120.882 28.7907C119.838 28.7907 118.862 28.7907 117.848 28.7907C117.848 21.2383 117.848 13.6859 117.848 6.10499C118.833 6.10499 119.818 6.10499 120.863 6.10499C120.863 9.20975 120.863 12.3146 120.863 15.4383C124.754 15.4383 128.577 15.4383 132.479 15.4383C132.479 12.3146 132.479 9.20975 132.479 6.08594C133.513 6.08594 134.499 6.08594 135.513 6.08594C135.513 13.6478 135.513 21.1907 135.513 28.7716C134.518 28.7716 133.533 28.7716 132.489 28.7716C132.489 25.2669 132.489 21.7621 132.489 18.2098Z" fill="#333333"/>
<path d="M87.0177 17.1052C87.0177 15.8099 87.0177 14.5051 87.0177 13.1528C88.0719 13.1528 89.0966 13.1528 90.2001 13.1528C90.2001 12.4194 90.2099 11.7433 90.2001 11.0671C90.2001 10.8195 90.2493 10.6671 90.5154 10.5623C92.3479 9.86706 94.1707 9.14326 95.9934 8.4385C96.0624 8.40992 96.1511 8.4004 96.2792 8.3623C96.2792 9.94325 96.2792 11.4861 96.2792 13.0956C97.56 13.0956 98.8014 13.0956 100.072 13.0956C100.072 14.429 100.072 15.7147 100.072 17.048C98.8507 17.048 97.6093 17.048 96.3186 17.048C96.3087 17.2671 96.289 17.4385 96.289 17.6004C96.289 19.629 96.289 21.6671 96.289 23.6956C96.289 24.4861 96.5452 24.9147 97.3432 25.0766C98.0428 25.2195 98.7719 25.2099 99.4911 25.2576C99.6685 25.2671 99.8458 25.2385 100.043 25.229C100.043 26.5052 100.043 27.7433 100.043 29.029C99.2349 29.0671 98.4172 29.1623 97.6093 29.1242C96.1412 29.048 94.6633 28.9432 93.2051 28.7623C92.6534 28.6957 92.1213 28.4099 91.6287 28.1338C90.742 27.6385 90.2592 26.8576 90.2296 25.867C90.1902 24.7052 90.2001 23.5528 90.2001 22.3909C90.2001 20.8005 90.2001 19.2194 90.2001 17.629C90.2001 17.4575 90.2001 17.2861 90.2001 17.0766C89.0966 17.0766 88.0522 17.0766 87.0078 17.0766C87.0078 17.0861 87.0177 17.1052 87.0177 17.1052Z" fill="#333333"/>
<path d="M152.598 20.5712C152.569 22.6092 152.243 24.3712 151.317 25.9997C150.253 27.8854 148.657 29.0569 146.48 29.4949C144.952 29.7998 143.416 29.8664 141.888 29.514C138.932 28.8378 137.139 26.9711 136.39 24.1902C135.829 22.1235 135.897 20.0378 136.538 17.9902C137.582 14.6664 140.352 12.6378 143.947 12.5235C145.159 12.4855 146.351 12.5997 147.484 13.0093C150.519 14.114 152.164 16.2569 152.509 19.3521C152.558 19.8188 152.579 20.2949 152.598 20.5712ZM149.494 20.7998C149.445 20.2759 149.426 19.7521 149.356 19.2378C149.001 16.6474 147.514 15.1616 144.971 14.933C143.159 14.7711 141.465 15.1045 140.439 16.7235C138.775 19.3617 138.656 22.1521 139.937 24.9711C140.47 26.1521 141.425 26.9711 142.755 27.2092C143.582 27.3521 144.459 27.3997 145.297 27.314C146.884 27.1616 147.967 26.314 148.597 24.8854C149.179 23.5616 149.465 22.2188 149.494 20.7998Z" fill="#333333"/>
<path d="M167.299 28.7807C166.373 28.7807 165.496 28.7807 164.56 28.7807C164.56 28.0759 164.56 27.3902 164.56 26.6283C164.215 26.9997 163.959 27.314 163.653 27.5998C162.284 28.8474 160.599 29.2854 158.766 29.2284C158.175 29.2093 157.584 29.1426 157.013 29.0093C154.825 28.5141 153.565 27.1235 153.318 24.9711C153.269 24.495 153.239 24.0188 153.239 23.5426C153.229 20.257 153.239 16.9712 153.239 13.6855C153.239 13.495 153.239 13.314 153.239 13.1045C154.254 13.1045 155.219 13.1045 156.264 13.1045C156.264 13.2854 156.264 13.4664 156.264 13.6569C156.264 16.7998 156.264 19.9426 156.264 23.0855C156.264 23.1045 156.264 23.1141 156.264 23.1331C156.264 26.4188 158.786 27.914 161.87 26.4378C163.417 25.7045 163.999 24.3522 164.244 22.8188C164.343 22.1903 164.372 21.5521 164.382 20.9236C164.403 18.514 164.393 16.095 164.393 13.6855C164.393 13.495 164.393 13.314 164.393 13.114C165.398 13.114 166.343 13.114 167.318 13.114C167.299 18.3331 167.299 23.5331 167.299 28.7807Z" fill="#333333"/>
<path d="M21.6757 0C22.6019 0.0952381 23.5379 0.180952 24.4542 0.295238C27.3114 0.666667 30.0406 1.42858 32.5136 2.90477C36.5138 5.28571 38.7109 8.82857 39.5878 13.2096C39.9819 15.1619 40.0509 17.1334 39.9622 19.2C39.7652 19.0667 39.6272 18.9715 39.4893 18.8666C36.3365 16.4857 33.1738 14.0953 30.0111 11.7334C29.7845 11.5619 29.4593 11.4476 29.1736 11.4476C23.0354 11.4286 16.8972 11.4286 10.759 11.4476C10.493 11.4476 10.1777 11.5524 9.96093 11.7048C6.63074 14.0857 3.32025 16.4761 0.00976562 18.8666C0.00976562 18.1714 0.00976562 17.4667 0.00976562 16.7714C0.0393235 16.6191 0.078734 16.4667 0.0984394 16.3047C0.275786 15.0952 0.36446 13.8762 0.620629 12.6858C1.39899 9.10476 3.09364 6.01905 6.14796 3.74286C8.88699 1.69524 12.0694 0.742857 15.4489 0.304762C16.375 0.180952 17.3012 0.0952381 18.2273 0C19.3801 0 20.523 0 21.6757 0Z" fill="#005FA9"/>
<path d="M18.3252 35.9997C17.399 35.9045 16.4729 35.8187 15.5467 35.695C11.7732 35.1901 8.27548 34.0283 5.3591 31.5521C4.97485 31.2283 4.63001 30.8664 4.26546 30.5235C4.12752 30.3902 4.00929 30.2378 3.8418 30.0568C4.12752 29.8473 4.39354 29.6473 4.65956 29.4568C9.60559 25.8854 14.5516 22.3235 19.4878 18.7426C19.8228 18.4949 20.0297 18.5044 20.3548 18.7521C25.36 22.4759 30.3848 26.1807 35.3998 29.8949C35.5771 30.0283 35.7643 30.1616 36.0501 30.3806C35.2422 31.0663 34.5229 31.7806 33.7051 32.3806C31.2124 34.2092 28.3355 35.1331 25.2811 35.5997C24.2762 35.752 23.2614 35.8092 22.2465 35.914C22.0889 35.933 21.9312 35.9711 21.7736 35.9997C20.6208 35.9997 19.4779 35.9997 18.3252 35.9997Z" fill="#005FA9"/>
<path d="M38.11 27.2473C37.509 28.1805 36.9375 29.0663 36.3168 30.0377C31.5481 25.6282 26.8484 21.2854 22.1191 16.9139C22.2866 16.7901 22.4246 16.6853 22.5822 16.5615C27.745 20.1043 32.8881 23.6473 38.11 27.2473Z" fill="#005FA9"/>
<path d="M2.33464 27.9425C2.22626 27.733 2.13759 27.5806 2.03906 27.3997C2.95536 26.7044 3.8618 26.0186 4.75839 25.3329C8.65018 22.3711 12.5518 19.4091 16.4338 16.4378C16.7294 16.2092 16.9166 16.1901 17.222 16.4282C17.9314 16.9902 18.6703 17.514 19.4487 18.0948C13.7342 21.3901 8.05902 24.6472 2.33464 27.9425Z" fill="#005FA9"/>
<path d="M38.3279 26.8193C33.707 22.867 29.1945 19.0002 24.6426 15.1146C24.8101 14.9908 24.948 14.8955 25.0958 14.7812C27.1747 16.0574 29.2339 17.3241 31.303 18.5908C33.8449 20.1527 36.3869 21.7241 38.9486 23.2765C39.2934 23.4861 39.3821 23.686 39.254 24.0479C38.9289 24.9336 38.653 25.8194 38.3279 26.8193Z" fill="#005FA9"/>
<path d="M13.8326 13.9238C14.6996 14.5619 15.5568 15.2 16.4534 15.8667C11.3004 18.9333 6.19676 21.9809 1.06354 25.0286C0.876337 24.7143 0.787663 24.4762 1.13251 24.2C5.29032 20.8381 9.42843 17.4667 13.5764 14.1048C13.6552 14.0381 13.734 13.9904 13.8326 13.9238Z" fill="#005FA9"/>
<path d="M0.187404 21.8474C0.266226 21.6379 0.295783 21.3712 0.443573 21.2379C3.82302 18.0856 7.20247 14.9522 10.5918 11.8188C10.641 11.7808 10.6903 11.7427 10.7888 11.6855C11.6559 12.3236 12.5229 12.9617 13.4294 13.6379C9.03506 16.4284 4.69991 19.1902 0.354899 21.9426C0.305636 21.9141 0.24652 21.8759 0.187404 21.8474Z" fill="#005FA9"/>
<path d="M39.5179 23.0769C35.3798 19.7435 31.35 16.4959 27.3203 13.2482C27.5568 12.9245 27.7735 12.8959 28.1184 13.0864C31.9215 15.2483 35.7246 17.4006 39.5376 19.5435C39.843 19.7149 39.9415 19.8959 39.9021 20.2198C39.7642 21.134 39.6558 22.0483 39.5179 23.0769Z" fill="#005FA9"/>
</g>
<defs>
<clipPath id="clip0_460_6067">
<rect width="197.053" height="36" fill="white"/>
</clipPath>
</defs>
</svg>
