<svg width="40" height="36" viewBox="0 0 40 36" fill="none" xmlns="http://www.w3.org/2000/svg">
<path d="M21.6757 0C22.6019 0.0952381 23.5379 0.180952 24.4542 0.295238C27.3114 0.666667 30.0406 1.42858 32.5136 2.90477C36.5138 5.28571 38.7109 8.82857 39.5878 13.2096C39.9819 15.1619 40.0509 17.1334 39.9622 19.2C39.7652 19.0667 39.6272 18.9715 39.4893 18.8666C36.3365 16.4857 33.1738 14.0953 30.0111 11.7334C29.7845 11.5619 29.4593 11.4476 29.1736 11.4476C23.0354 11.4286 16.8972 11.4286 10.759 11.4476C10.493 11.4476 10.1777 11.5524 9.96093 11.7048C6.63074 14.0857 3.32025 16.4761 0.00976562 18.8666C0.00976562 18.1714 0.00976562 17.4667 0.00976562 16.7714C0.0393235 16.6191 0.078734 16.4667 0.0984394 16.3047C0.275786 15.0952 0.36446 13.8762 0.620629 12.6858C1.39899 9.10476 3.09364 6.01905 6.14796 3.74286C8.88699 1.69524 12.0694 0.742857 15.4489 0.304762C16.375 0.180952 17.3012 0.0952381 18.2273 0C19.3801 0 20.523 0 21.6757 0Z" fill="#005FA9"/>
<path d="M18.3252 35.9997C17.399 35.9045 16.4729 35.8187 15.5467 35.695C11.7732 35.1901 8.27548 34.0283 5.3591 31.5521C4.97485 31.2283 4.63001 30.8664 4.26546 30.5235C4.12752 30.3902 4.00929 30.2378 3.8418 30.0568C4.12752 29.8473 4.39354 29.6473 4.65956 29.4568C9.60559 25.8854 14.5516 22.3235 19.4878 18.7426C19.8228 18.4949 20.0297 18.5044 20.3548 18.7521C25.36 22.4759 30.3848 26.1807 35.3998 29.8949C35.5771 30.0283 35.7643 30.1616 36.0501 30.3806C35.2422 31.0663 34.5229 31.7806 33.7051 32.3806C31.2124 34.2092 28.3355 35.1331 25.2811 35.5997C24.2762 35.752 23.2614 35.8092 22.2465 35.914C22.0889 35.933 21.9312 35.9711 21.7736 35.9997C20.6208 35.9997 19.4779 35.9997 18.3252 35.9997Z" fill="#005FA9"/>
<path d="M38.11 27.2473C37.509 28.1805 36.9375 29.0663 36.3168 30.0377C31.5481 25.6282 26.8484 21.2854 22.1191 16.9139C22.2866 16.7901 22.4246 16.6853 22.5822 16.5615C27.745 20.1043 32.8881 23.6473 38.11 27.2473Z" fill="#005FA9"/>
<path d="M2.33464 27.9425C2.22626 27.733 2.13759 27.5806 2.03906 27.3997C2.95536 26.7044 3.8618 26.0186 4.75839 25.3329C8.65018 22.3711 12.5518 19.4091 16.4338 16.4378C16.7294 16.2092 16.9166 16.1901 17.222 16.4282C17.9314 16.9902 18.6703 17.514 19.4487 18.0948C13.7342 21.3901 8.05902 24.6472 2.33464 27.9425Z" fill="#005FA9"/>
<path d="M38.3279 26.8193C33.707 22.867 29.1945 19.0002 24.6426 15.1146C24.8101 14.9908 24.948 14.8955 25.0958 14.7812C27.1747 16.0574 29.2339 17.3241 31.303 18.5908C33.8449 20.1527 36.3869 21.7241 38.9486 23.2765C39.2934 23.4861 39.3821 23.686 39.254 24.0479C38.9289 24.9336 38.653 25.8194 38.3279 26.8193Z" fill="#005FA9"/>
<path d="M13.8326 13.9238C14.6996 14.5619 15.5568 15.2 16.4534 15.8667C11.3004 18.9333 6.19676 21.9809 1.06354 25.0286C0.876337 24.7143 0.787663 24.4762 1.13251 24.2C5.29032 20.8381 9.42843 17.4667 13.5764 14.1048C13.6552 14.0381 13.734 13.9904 13.8326 13.9238Z" fill="#005FA9"/>
<path d="M0.187404 21.8474C0.266226 21.6379 0.295783 21.3712 0.443573 21.2379C3.82302 18.0856 7.20247 14.9522 10.5918 11.8188C10.641 11.7808 10.6903 11.7427 10.7888 11.6855C11.6559 12.3236 12.5229 12.9617 13.4294 13.6379C9.03506 16.4284 4.69991 19.1902 0.354899 21.9426C0.305636 21.9141 0.24652 21.8759 0.187404 21.8474Z" fill="#005FA9"/>
<path d="M39.5179 23.0769C35.3798 19.7435 31.35 16.4959 27.3203 13.2482C27.5568 12.9245 27.7735 12.8959 28.1184 13.0864C31.9215 15.2483 35.7246 17.4006 39.5376 19.5435C39.843 19.7149 39.9415 19.8959 39.9021 20.2198C39.7642 21.134 39.6558 22.0483 39.5179 23.0769Z" fill="#005FA9"/>
</svg>
