<svg width="280" height="280" viewBox="0 0 280 280" fill="none" xmlns="http://www.w3.org/2000/svg">
<path d="M181.829 72.9228C181.829 72.9228 167.846 108.606 222.163 141.478C270.402 170.671 221.154 219.578 193.247 227.717C157.096 238.259 116.802 206.502 98.4882 232.625C80.1746 258.747 24.5122 212.017 49.7052 171.219C81.044 120.469 43.6964 119.685 37.4436 97.5792C32.9559 81.7138 63.1646 37.989 98.7156 51.6904C128.631 63.2196 133.967 50.8077 141.14 43.4983C151.486 32.9562 189.717 40.2294 181.829 72.9228Z" fill="#F9F9F9"/>
<path fill-rule="evenodd" clip-rule="evenodd" d="M173.333 80.8571C173.333 76.5698 169.345 73.3971 165.167 74.3611L85.1675 92.8227C82.1427 93.5207 79.9999 96.2142 79.9999 99.3186V200H76.6666C74.8257 200 73.3333 201.493 73.3333 203.334C73.3333 205.174 74.8257 206.667 76.6666 206.667H83.3201H83.3333H83.3464H113.333V186.667C113.333 182.985 116.318 180 120 180H133.333C137.015 180 140 182.985 140 186.667V206.667H169.987H170H170.013H173.333V80.8571ZM103.333 113.334C101.492 113.334 99.9999 114.826 99.9999 116.667V123.334C99.9999 125.174 101.492 126.667 103.333 126.667H110C111.841 126.667 113.333 125.174 113.333 123.334V116.667C113.333 114.826 111.841 113.334 110 113.334H103.333ZM99.9999 136.667C99.9999 134.826 101.492 133.334 103.333 133.334H110C111.841 133.334 113.333 134.826 113.333 136.667V143.334C113.333 145.174 111.841 146.667 110 146.667H103.333C101.492 146.667 99.9999 145.174 99.9999 143.334V136.667ZM103.333 153.334C101.492 153.334 99.9999 154.826 99.9999 156.667V163.334C99.9999 165.174 101.492 166.667 103.333 166.667H110C111.841 166.667 113.333 165.174 113.333 163.334V156.667C113.333 154.826 111.841 153.334 110 153.334H103.333ZM120 116.667C120 114.826 121.492 113.334 123.333 113.334H130C131.841 113.334 133.333 114.826 133.333 116.667V123.334C133.333 125.174 131.841 126.667 130 126.667H123.333C121.492 126.667 120 125.174 120 123.334V116.667ZM123.333 133.334C121.492 133.334 120 134.826 120 136.667V143.334C120 145.174 121.492 146.667 123.333 146.667H130C131.841 146.667 133.333 145.174 133.333 143.334V136.667C133.333 134.826 131.841 133.334 130 133.334H123.333ZM120 156.667C120 154.826 121.492 153.334 123.333 153.334H130C131.841 153.334 133.333 154.826 133.333 156.667V163.334C133.333 165.174 131.841 166.667 130 166.667H123.333C121.492 166.667 120 165.174 120 163.334V156.667ZM143.333 113.334C141.493 113.334 140 114.826 140 116.667V123.334C140 125.174 141.493 126.667 143.333 126.667H150C151.841 126.667 153.333 125.174 153.333 123.334V116.667C153.333 114.826 151.841 113.334 150 113.334H143.333ZM140 136.667C140 134.826 141.493 133.334 143.333 133.334H150C151.841 133.334 153.333 134.826 153.333 136.667V143.334C153.333 145.174 151.841 146.667 150 146.667H143.333C141.493 146.667 140 145.174 140 143.334V136.667ZM143.333 153.334C141.493 153.334 140 154.826 140 156.667V163.334C140 165.174 141.493 166.667 143.333 166.667H150C151.841 166.667 153.333 165.174 153.333 163.334V156.667C153.333 154.826 151.841 153.334 150 153.334H143.333Z" fill="#B5BDC5"/>
<path d="M180 97.9404V206.667H196.657H196.667H196.676H203.333C205.174 206.667 206.667 205.174 206.667 203.334C206.667 201.493 205.174 200 203.333 200H200V112.061C200 109.535 198.573 107.227 196.315 106.098L180 97.9404Z" fill="#E1E5E8"/>
<path d="M133.333 206.667H120V186.667H133.333V206.667Z" fill="#D3D7DC"/>
<path d="M192.786 220.573C205.371 220.573 215.573 210.371 215.573 197.786C215.573 185.202 205.371 175 192.786 175C180.202 175 170 185.202 170 197.786C170 210.371 180.202 220.573 192.786 220.573Z" fill="#D3D7DC" stroke="white" stroke-width="15" stroke-miterlimit="10"/>
<path d="M201.565 195.877H195.076C195.026 195.877 194.977 195.868 194.93 195.848C194.884 195.829 194.842 195.801 194.807 195.766C194.771 195.73 194.743 195.688 194.724 195.642C194.705 195.596 194.695 195.546 194.695 195.496V189.007C194.691 188.504 194.488 188.023 194.13 187.668C193.773 187.314 193.29 187.115 192.786 187.115C192.283 187.115 191.8 187.314 191.443 187.668C191.085 188.023 190.882 188.504 190.878 189.007V195.496C190.878 195.597 190.838 195.694 190.766 195.766C190.695 195.837 190.598 195.877 190.496 195.877H184.008C183.502 195.877 183.016 196.079 182.659 196.436C182.301 196.794 182.1 197.28 182.1 197.786C182.1 198.292 182.301 198.777 182.659 199.135C183.016 199.493 183.502 199.694 184.008 199.694H190.496C190.547 199.694 190.596 199.704 190.642 199.723C190.689 199.742 190.731 199.771 190.766 199.806C190.802 199.841 190.83 199.884 190.849 199.93C190.868 199.976 190.878 200.026 190.878 200.076V206.565C190.882 207.068 191.085 207.549 191.443 207.904C191.8 208.258 192.283 208.457 192.786 208.457C193.29 208.457 193.773 208.258 194.13 207.904C194.488 207.549 194.691 207.068 194.695 206.565V200.076C194.695 200.026 194.705 199.976 194.724 199.93C194.743 199.884 194.771 199.841 194.807 199.806C194.842 199.771 194.884 199.742 194.93 199.723C194.977 199.704 195.026 199.694 195.076 199.694H201.565C202.071 199.694 202.556 199.493 202.914 199.135C203.272 198.777 203.473 198.292 203.473 197.786C203.473 197.28 203.272 196.794 202.914 196.436C202.556 196.079 202.071 195.877 201.565 195.877Z" fill="white"/>
</svg>
