<svg width="400" height="300" viewBox="0 0 400 300" fill="none" xmlns="http://www.w3.org/2000/svg">
<path d="M220.408 80.234C296.641 63.348 340.089 95.74 353.824 140.176C367.56 184.611 350.441 251.977 289.605 265.454C228.768 278.93 217.861 245.748 135.298 260.143C52.7335 274.537 10.8535 148.943 72.5905 96.573C134.326 44.203 144.176 97.12 220.408 80.234Z" fill="#EDEFF1"/>
<path d="M149.997 152.293L143.669 100.76C140.056 71.334 160.982 44.551 190.407 40.938C219.833 37.325 246.616 58.25 250.229 87.676L256.557 139.209" stroke="#DEE1E5" stroke-width="33.44"/>
<path d="M279.294 104.523L279.233 104.027L279.294 104.523C288.667 103.373 297.199 110.041 298.351 119.415L310.961 222.057C312.113 231.432 305.448 239.964 296.075 241.114L136.246 260.727C126.874 261.876 118.341 255.209 117.19 245.834L116.693 245.895L117.19 245.834L104.579 143.193C103.427 133.818 110.091 125.286 119.464 124.135L279.294 104.523Z" fill="#DEE1E5" stroke="#B5BDC5"/>
<path d="M203.938 136.538C223.354 134.154 241.019 147.902 243.394 167.244C245.051 180.744 238.824 193.4 228.31 200.626L236.55 231.624C236.633 231.937 236.649 232.265 236.595 232.585C236.542 232.904 236.421 233.209 236.24 233.478C236.06 233.748 235.824 233.975 235.548 234.146C235.272 234.317 234.964 234.427 234.642 234.469L198.438 239.195C198.117 239.237 197.79 239.21 197.48 239.115C197.17 239.021 196.883 238.861 196.64 238.647C196.396 238.433 196.201 238.17 196.067 237.875C195.933 237.579 195.864 237.259 195.864 236.935L195.865 204.645C183.88 200.194 174.743 189.403 173.082 175.878C170.707 156.535 184.522 138.922 203.938 136.538Z" fill="#B5BDC5"/>
<path d="M215.245 222.26C215.389 222.26 215.532 222.231 215.666 222.176C215.799 222.121 215.92 222.04 216.022 221.938C216.125 221.836 216.206 221.714 216.261 221.581C216.316 221.447 216.345 221.304 216.345 221.16C216.345 221.015 216.316 220.872 216.261 220.739C216.206 220.605 216.125 220.484 216.022 220.382C215.92 220.28 215.799 220.199 215.666 220.144C215.532 220.088 215.389 220.06 215.245 220.06C214.953 220.06 214.673 220.176 214.467 220.382C214.26 220.588 214.145 220.868 214.145 221.16C214.145 221.452 214.26 221.731 214.467 221.938C214.673 222.144 214.953 222.26 215.245 222.26ZM228.225 226.34C228.49 226.34 228.744 226.235 228.932 226.047C229.119 225.859 229.225 225.605 229.225 225.34C229.225 225.075 229.119 224.82 228.932 224.633C228.744 224.445 228.49 224.34 228.225 224.34C227.959 224.34 227.705 224.445 227.518 224.633C227.33 224.82 227.225 225.075 227.225 225.34C227.225 225.605 227.33 225.859 227.518 226.047C227.705 226.235 227.959 226.34 228.225 226.34ZM239.665 162.1C239.93 162.1 240.184 161.995 240.372 161.807C240.559 161.619 240.665 161.365 240.665 161.1C240.665 160.835 240.559 160.58 240.372 160.393C240.184 160.205 239.93 160.1 239.665 160.1C239.399 160.1 239.145 160.205 238.957 160.393C238.77 160.58 238.665 160.835 238.665 161.1C238.665 161.365 238.77 161.619 238.957 161.807C239.145 161.995 239.399 162.1 239.665 162.1ZM206.005 229.2C206.27 229.2 206.524 229.095 206.712 228.907C206.899 228.719 207.005 228.465 207.005 228.2C207.005 227.935 206.899 227.68 206.712 227.493C206.524 227.305 206.27 227.2 206.005 227.2C205.739 227.2 205.485 227.305 205.298 227.493C205.11 227.68 205.005 227.935 205.005 228.2C205.005 228.465 205.11 228.719 205.298 228.907C205.485 229.095 205.739 229.2 206.005 229.2ZM202.705 226.78C202.97 226.78 203.224 226.675 203.412 226.487C203.599 226.299 203.705 226.045 203.705 225.78C203.705 225.515 203.599 225.26 203.412 225.073C203.224 224.885 202.97 224.78 202.705 224.78C202.439 224.78 202.185 224.885 201.997 225.073C201.81 225.26 201.705 225.515 201.705 225.78C201.705 226.045 201.81 226.299 201.997 226.487C202.185 226.675 202.439 226.78 202.705 226.78ZM206.225 155.06C206.49 155.06 206.744 154.955 206.932 154.767C207.119 154.579 207.225 154.325 207.225 154.06C207.225 153.795 207.119 153.54 206.932 153.353C206.744 153.165 206.49 153.06 206.225 153.06C205.959 153.06 205.705 153.165 205.518 153.353C205.33 153.54 205.225 153.795 205.225 154.06C205.225 154.325 205.33 154.579 205.518 154.767C205.705 154.955 205.959 155.06 206.225 155.06ZM195.225 151.1C195.49 151.1 195.744 150.995 195.932 150.807C196.119 150.619 196.225 150.365 196.225 150.1C196.225 149.835 196.119 149.58 195.932 149.393C195.744 149.205 195.49 149.1 195.225 149.1C194.959 149.1 194.705 149.205 194.518 149.393C194.33 149.58 194.225 149.835 194.225 150.1C194.225 150.365 194.33 150.619 194.518 150.807C194.705 150.995 194.959 151.1 195.225 151.1ZM200.725 144.28C200.99 144.28 201.244 144.175 201.432 143.987C201.619 143.799 201.725 143.545 201.725 143.28C201.725 143.015 201.619 142.76 201.432 142.573C201.244 142.385 200.99 142.28 200.725 142.28C200.459 142.28 200.205 142.385 200.018 142.573C199.83 142.76 199.725 143.015 199.725 143.28C199.725 143.545 199.83 143.799 200.018 143.987C200.205 144.175 200.459 144.28 200.725 144.28ZM228.445 158.8C228.71 158.8 228.964 158.695 229.152 158.507C229.339 158.319 229.445 158.065 229.445 157.8C229.445 157.535 229.339 157.28 229.152 157.093C228.964 156.905 228.71 156.8 228.445 156.8C228.179 156.8 227.925 156.905 227.738 157.093C227.55 157.28 227.445 157.535 227.445 157.8C227.445 158.065 227.55 158.319 227.738 158.507C227.925 158.695 228.179 158.8 228.445 158.8ZM219.425 147.14C219.69 147.14 219.944 147.035 220.132 146.847C220.319 146.659 220.425 146.405 220.425 146.14C220.425 145.875 220.319 145.62 220.132 145.433C219.944 145.245 219.69 145.14 219.425 145.14C219.159 145.14 218.905 145.245 218.717 145.433C218.53 145.62 218.425 145.875 218.425 146.14C218.425 146.405 218.53 146.659 218.717 146.847C218.905 147.035 219.159 147.14 219.425 147.14Z" fill="white"/>
<mask id="mask0_6755_37859" style="mask-type:alpha" maskUnits="userSpaceOnUse" x="172" y="104" width="196" height="181">
<path d="M211.634 120.113C214.165 111.772 216.595 103.611 219.261 104.64C231.033 109.186 349.555 119.448 351.204 132.867C353.332 150.179 384.185 227.989 354.497 238.165C354.151 238.284 352.531 238.077 349.887 237.606L350.834 282.049C350.842 282.404 350.766 282.756 350.614 283.076C350.462 283.397 350.237 283.677 349.957 283.895C349.677 284.114 349.35 284.263 349.002 284.333C348.654 284.402 348.294 284.389 347.952 284.295L198.249 243.031C197.773 242.9 197.352 242.618 197.05 242.227C196.748 241.836 196.582 241.358 196.575 240.864L196.084 204.984C183.993 200.587 174.741 189.704 173.061 176.041C170.68 156.666 184.426 139.037 203.764 136.665C206.499 136.33 208.891 129.099 211.186 121.585L211.634 120.113Z" fill="white"/>
</mask>
<g mask="url(#mask0_6755_37859)">
<path d="M157.592 139.636C144.206 134.497 129.193 141.175 124.059 154.553C118.925 167.93 125.615 182.942 139.002 188.082L271.283 238.875C284.669 244.015 299.682 237.336 304.816 223.959C309.95 210.581 303.26 195.569 289.874 190.429L157.592 139.636Z" fill="white" stroke="#B5BDC5" stroke-width="1.32" stroke-linecap="round" stroke-linejoin="round"/>
<path fill-rule="evenodd" clip-rule="evenodd" d="M251.931 212.444L248.901 155.273C248.801 153.412 249.437 151.586 250.671 150.189C251.905 148.792 253.638 147.936 255.498 147.805C257.346 147.677 259.168 148.289 260.565 149.505C261.963 150.72 262.82 152.441 262.949 154.289V154.295L264.951 183.177" fill="white"/>
<path d="M251.931 212.444L248.901 155.273C248.801 153.412 249.437 151.586 250.671 150.189C251.905 148.792 253.638 147.936 255.498 147.805C257.346 147.677 259.168 148.289 260.565 149.505C261.963 150.72 262.82 152.441 262.949 154.289V154.295L264.951 183.177" stroke="#B5BDC5" stroke-width="1.32" stroke-linecap="round" stroke-linejoin="round"/>
<path d="M259.848 214.023L301.096 211.15L298.353 172.073L257.105 174.947L259.848 214.023Z" fill="white"/>
<path fill-rule="evenodd" clip-rule="evenodd" d="M303.332 194.847L310.558 177.77C310.907 176.946 311.42 176.202 312.066 175.583C312.712 174.965 313.478 174.484 314.316 174.172C315.155 173.859 316.048 173.721 316.941 173.765C317.835 173.81 318.71 174.036 319.513 174.431C321.189 175.253 322.481 176.693 323.117 178.448C323.752 180.203 323.682 182.136 322.921 183.841L308.678 215.708" fill="white"/>
<path d="M303.332 194.847L310.558 177.77C310.907 176.946 311.42 176.202 312.066 175.583C312.712 174.965 313.478 174.484 314.316 174.172C315.155 173.859 316.048 173.721 316.941 173.765C317.835 173.81 318.71 174.036 319.513 174.431C321.189 175.253 322.481 176.693 323.117 178.448C323.752 180.203 323.682 182.136 322.921 183.841L308.678 215.708" stroke="#B5BDC5" stroke-width="1.32" stroke-linecap="round" stroke-linejoin="round"/>
<path fill-rule="evenodd" clip-rule="evenodd" d="M264.962 183.129L262.898 154.07C262.835 153.184 262.947 152.295 263.227 151.453C263.507 150.611 263.951 149.832 264.533 149.161C265.114 148.49 265.822 147.941 266.616 147.544C267.41 147.147 268.275 146.91 269.16 146.847L269.224 146.843C271.037 146.733 272.819 147.344 274.184 148.541C275.549 149.739 276.385 151.428 276.511 153.239L278.551 182.301" fill="white"/>
<path d="M264.962 183.129L262.898 154.07C262.835 153.184 262.947 152.295 263.227 151.453C263.507 150.611 263.951 149.832 264.533 149.161C265.114 148.49 265.822 147.941 266.616 147.544C267.41 147.147 268.275 146.91 269.16 146.847L269.224 146.843C271.036 146.733 272.819 147.344 274.184 148.542C275.548 149.739 276.385 151.428 276.511 153.239L278.551 182.301" stroke="#B5BDC5" stroke-width="1.32" stroke-linecap="round" stroke-linejoin="round"/>
<path fill-rule="evenodd" clip-rule="evenodd" d="M278.559 182.297L276.527 153.341C276.463 152.444 276.577 151.544 276.862 150.691C277.147 149.838 277.597 149.05 278.186 148.371C278.776 147.692 279.493 147.136 280.298 146.735C281.102 146.333 281.978 146.095 282.875 146.032L282.959 146.026C284.802 145.921 286.613 146.547 287.998 147.767C289.384 148.988 290.233 150.705 290.362 152.547L292.398 181.562" fill="white"/>
<path d="M278.559 182.297L276.527 153.341C276.463 152.444 276.577 151.544 276.862 150.691C277.147 149.838 277.597 149.05 278.186 148.371C278.776 147.692 279.493 147.136 280.298 146.735C281.102 146.333 281.978 146.095 282.875 146.032L282.959 146.026C284.802 145.921 286.613 146.547 287.998 147.767C289.384 148.988 290.233 150.705 290.362 152.547L292.398 181.562" stroke="#B5BDC5" stroke-width="1.32" stroke-linecap="round" stroke-linejoin="round"/>
<path fill-rule="evenodd" clip-rule="evenodd" d="M292.397 181.556L290.382 152.838C290.315 151.895 290.435 150.947 290.735 150.051C291.034 149.154 291.508 148.324 292.128 147.61C292.748 146.896 293.502 146.311 294.348 145.889C295.195 145.467 296.116 145.215 297.059 145.149L297.085 145.148C299.014 145.022 300.917 145.654 302.387 146.91C303.856 148.167 304.777 149.947 304.953 151.873L310.21 209.287C311.614 224.616 300.602 238.282 285.338 240.153" fill="white"/>
<path d="M292.397 181.556L290.382 152.838C290.315 151.895 290.435 150.947 290.735 150.051C291.034 149.154 291.508 148.324 292.128 147.61C292.748 146.896 293.502 146.311 294.348 145.889C295.195 145.467 296.116 145.215 297.059 145.149L297.085 145.148C299.014 145.022 300.917 145.654 302.387 146.91C303.856 148.167 304.777 149.947 304.953 151.873L310.21 209.287C311.614 224.616 300.602 238.282 285.338 240.153" stroke="#B5BDC5" stroke-width="1.32" stroke-linecap="round" stroke-linejoin="round"/>
</g>
</svg>
