<svg width="400" height="300" viewBox="0 0 400 300" fill="none" xmlns="http://www.w3.org/2000/svg">
<circle cx="195.918" cy="151.045" r="129.657" fill="#EDEFF1"/>
<circle cx="74.3884" cy="63.4986" r="8.12663" fill="#EDEFF1"/>
<circle cx="284.573" cy="31.3613" r="15.1451" fill="#EDEFF1"/>
<circle cx="76.9747" cy="234.527" r="14.4063" fill="#EDEFF1"/>
<circle cx="334.811" cy="220.49" r="14.4063" fill="#EDEFF1"/>
<circle cx="306.735" cy="236.744" r="7.01845" fill="#EDEFF1"/>
<path d="M213.67 24.7398C213.242 24.6487 213.242 24.0374 213.67 23.9463L220.146 22.5692C220.302 22.536 220.424 22.4144 220.458 22.2584L221.853 15.8281C221.945 15.4019 222.553 15.4019 222.645 15.8281L224.04 22.2584C224.074 22.4144 224.196 22.536 224.352 22.5692L230.828 23.9463C231.256 24.0374 231.256 24.6487 230.828 24.7398L224.352 26.1169C224.196 26.1501 224.074 26.2717 224.04 26.4277L222.645 32.858C222.553 33.2842 221.945 33.2842 221.853 32.858L220.458 26.4277C220.424 26.2717 220.302 26.1501 220.146 26.1169L213.67 24.7398Z" fill="#CFD4D9"/>
<path d="M234.87 252.348C235.035 251.567 236.15 251.567 236.316 252.348L238.785 264.015C238.845 264.3 239.067 264.522 239.351 264.584L250.898 267.1C251.673 267.269 251.673 268.374 250.898 268.543L239.351 271.059C239.067 271.121 238.845 271.343 238.785 271.628L236.316 283.295C236.15 284.076 235.035 284.076 234.87 283.295L232.401 271.628C232.34 271.343 232.119 271.121 231.835 271.059L220.288 268.543C219.513 268.374 219.513 267.269 220.288 267.1L231.835 264.584C232.119 264.522 232.34 264.3 232.401 264.015L234.87 252.348Z" fill="#CFD4D9"/>
<path d="M333.956 61.7416C334.121 60.9606 335.236 60.9606 335.402 61.7416L336.842 68.5481C336.903 68.8325 337.124 69.0551 337.408 69.117L344.163 70.5886C344.939 70.7575 344.939 71.8634 344.163 72.0323L337.408 73.504C337.124 73.5659 336.903 73.7885 336.842 74.0729L335.402 80.8793C335.236 81.6604 334.121 81.6604 333.956 80.8793L332.515 74.0729C332.455 73.7885 332.234 73.5659 331.95 73.504L325.194 72.0323C324.419 71.8634 324.419 70.7575 325.194 70.5886L331.95 69.117C332.234 69.0551 332.455 68.8325 332.515 68.5481L333.956 61.7416Z" fill="#CFD4D9"/>
<path d="M341.577 204.112L343.84 214.8L354.375 217.095L343.84 219.39L341.577 230.079L339.315 219.39L328.779 217.095L339.315 214.8L341.577 204.112Z" fill="white"/>
<path d="M178.049 176.991L176.744 177.41L177.79 178.19L186.786 184.897L186.791 184.901L186.797 184.905C192.024 188.732 194.046 191.409 193.705 193.114L193.702 193.127L193.7 193.141C193.475 194.811 191.172 196.498 186.109 198.125C182.679 199.227 179.421 199.384 176.241 198.797C172.968 198.193 169.375 196.728 165.488 194.186C164.15 193.311 163.248 192.653 162.727 192.193L162.696 192.166L162.661 192.139L154.619 185.849L153.415 184.908L151.858 185.408C131.441 191.97 115.898 196.905 105.223 200.215L105.213 200.218L105.204 200.221C102.599 201.058 99.2018 201.155 94.7603 200.38C90.4214 199.623 86.3847 198.078 82.6501 195.636C80.4526 194.199 78.5713 192.52 77.0238 190.587C67.4267 178.299 58.7383 163.589 50.969 146.447C49.3369 142.81 49.0445 140.125 49.9012 138.313L49.9013 138.313L49.9046 138.306C50.7429 136.454 53.7596 134.592 59.407 132.777C62.3195 131.841 64.8257 131.606 66.9662 131.845L67.0065 131.849L67.0468 131.853C69.4034 132.068 71.3291 132.675 72.953 133.737C74.8036 134.947 76.0775 136.382 76.7211 138.072L76.7265 138.086L76.7328 138.101C85.0988 157.044 93.2941 171.918 101.329 182.701L102.302 184.007L104.31 183.361L136.838 172.908L138.075 172.51L137.155 171.754C127.371 163.714 118.778 155.838 111.374 148.127C108.779 145.377 107.835 143.084 108.33 141.198L108.333 141.185L108.336 141.172C108.71 139.267 110.856 137.612 115.112 136.244C118.533 135.145 121.488 134.832 124.014 135.082C126.471 135.326 128.93 136.146 131.411 137.769C132.98 138.795 133.943 139.561 134.416 140.093L134.444 140.125L134.476 140.156C142.482 147.869 151.203 155.774 160.638 163.871L161.814 164.881L163.451 164.354L171.055 161.911C174.621 160.765 177.703 160.427 180.336 160.679C182.892 160.923 185.425 161.762 187.962 163.421C192.217 166.203 193.487 168.341 192.608 169.994C191.662 171.774 188.444 173.65 182.484 175.565L178.049 176.991Z" fill="#CFD4D9" stroke="#CFD4D9" stroke-width="2.95514"/>
<path d="M324.853 128.78L323.548 129.2L324.593 129.979L330.155 134.125L330.16 134.13L330.166 134.134C333.38 136.487 334.475 138.033 334.291 138.95L334.288 138.963L334.287 138.977C334.165 139.876 332.909 140.857 329.835 141.845C327.83 142.49 326.025 142.555 324.325 142.241C322.532 141.91 320.448 141.084 318.097 139.547C317.278 139.011 316.751 138.624 316.461 138.368L316.429 138.34L316.395 138.313L311.423 134.425L310.219 133.483L308.661 133.984C296.041 138.04 286.435 141.09 279.839 143.135L279.83 143.138L279.821 143.141C278.399 143.598 276.522 143.667 273.94 143.217C271.46 142.784 269.109 141.896 266.887 140.443C265.588 139.593 264.463 138.593 263.532 137.43C257.619 129.858 252.259 120.786 247.462 110.203C246.463 107.975 246.307 106.376 246.804 105.325L246.804 105.325L246.807 105.318C247.279 104.275 249.011 103.172 252.454 102.065C254.183 101.509 255.566 101.404 256.643 101.525L256.683 101.529L256.723 101.533C257.962 101.646 258.951 101.955 259.818 102.523C260.866 103.207 261.605 104.03 261.983 105.022L261.988 105.036L261.994 105.051C267.169 116.768 272.245 125.984 277.231 132.676L278.204 133.982L280.212 133.336L300.321 126.874L301.557 126.476L300.637 125.72C294.604 120.762 289.307 115.907 284.744 111.155C283.184 109.501 282.651 108.159 282.935 107.078L282.938 107.065L282.941 107.052C283.151 105.983 284.355 105.023 286.89 104.209C288.94 103.55 290.607 103.397 291.928 103.528C293.179 103.652 294.515 104.072 295.956 105.015C296.911 105.639 297.455 106.079 297.705 106.36L297.733 106.392L297.765 106.423C302.722 111.198 308.12 116.092 313.96 121.103L315.136 122.112L316.773 121.586L321.474 120.075C323.615 119.387 325.362 119.22 326.751 119.352C328.063 119.477 329.443 119.909 330.916 120.873C333.47 122.543 334.096 123.735 333.631 124.61C333.098 125.612 331.243 126.727 327.595 127.899L324.853 128.78Z" fill="#CFD4D9" stroke="#CFD4D9" stroke-width="2.95514"/>
<path d="M227.602 121.875C239.183 127.647 248.372 135.308 253.891 142.959C259.456 150.673 261.065 158.014 258.357 163.447C255.649 168.881 248.819 172.016 239.309 172.218C229.877 172.417 218.228 169.692 206.647 163.92C195.066 158.149 185.877 150.488 180.358 142.837C174.793 135.123 173.184 127.782 175.892 122.349C178.6 116.915 185.43 113.78 194.94 113.578C204.372 113.379 216.021 116.104 227.602 121.875Z" fill="#EDEFF1" stroke="#CFD4D9" stroke-width="2.95514"/>
<path d="M171.244 97.2921L194.813 156.215L198.877 159.171L205.156 162.865L210.697 165.081L184.097 96.2109C183.877 95.6413 183.329 95.2657 182.718 95.2657L172.616 95.2657C171.571 95.2657 170.856 96.3215 171.244 97.2921Z" fill="#EDEFF1" stroke="#CFD4D9" stroke-width="2.95514"/>
<path d="M197.692 84.2666L232.702 171.703C232.8 171.949 233.022 172.123 233.283 172.16L235.394 172.462C235.429 172.467 235.464 172.469 235.499 172.469L240.618 172.469L243.516 172.107C243.554 172.102 243.591 172.094 243.628 172.084L246.159 171.361L248.068 170.543C248.442 170.382 248.616 169.95 248.456 169.575L211.705 83.0902C211.584 82.8054 211.298 82.6262 210.989 82.6412L198.342 83.254C197.835 83.2786 197.503 83.7953 197.692 84.2666Z" fill="#EDEFF1" stroke="#CFD4D9" stroke-width="2.95514"/>
<path d="M189.765 107.054L209.714 100.654C210.824 100.298 212.013 100.909 212.369 102.019C212.725 103.129 212.114 104.318 211.004 104.674L191.054 111.075L189.765 107.054Z" fill="#CFD4D9" stroke="#CFD4D9" stroke-width="2.95514"/>
<path d="M198.086 128.404L217.684 120.998C218.775 120.585 219.993 121.135 220.405 122.226C220.817 123.317 220.267 124.535 219.177 124.947L199.579 132.353L198.086 128.404Z" fill="#CFD4D9" stroke="#CFD4D9" stroke-width="2.95514"/>
<path d="M206.693 148.842L223.975 141.705C225.052 141.26 226.287 141.773 226.732 142.85C227.177 143.928 226.664 145.162 225.586 145.607L208.305 152.744L206.693 148.842Z" fill="#CFD4D9" stroke="#CFD4D9" stroke-width="2.95514"/>
</svg>
