<svg width="280" height="280" viewBox="0 0 280 280" fill="none" xmlns="http://www.w3.org/2000/svg">
<path d="M181.008 72.4165C181.008 72.4165 167.024 108.1 221.342 140.972C269.581 170.165 220.332 219.072 192.426 227.21C156.275 237.752 115.981 205.995 97.667 232.118C79.3533 258.241 23.691 211.51 48.884 170.713C80.2227 119.963 42.8752 119.179 36.6223 97.0728C32.1346 81.2075 62.3433 37.4827 97.8943 51.1841C127.81 62.7132 133.145 50.3014 140.319 42.992C150.664 32.4498 188.896 39.7231 181.008 72.4165Z" fill="#F9F9F9"/>
<path d="M119.973 190.27C110.941 189.86 100.676 179.048 105.193 176.174C109.709 173.3 109.161 167.279 107.519 166.458C97.392 162.49 94.9286 153.594 92.739 142.235C90.5494 130.876 91.781 94.7472 91.781 94.7472L104.508 88.315L139.68 86.2622L149.67 102.822C149.67 102.822 146.008 112.708 145.701 122.6C148.099 120.684 152.287 118.045 155.417 119.928C157.443 121.143 158.664 123.043 159.183 125.167C159.857 127.92 159.348 131.063 157.881 133.614C156.862 135.387 155.669 137.156 154.016 138.514C151.678 140.435 148.416 141.525 143.385 140.638C143.588 143.336 148.848 143.452 148.848 146.205C148.848 148.805 148.75 152.774 148.848 154.279C149.669 166.596 156.375 170.839 159.796 174.944C163.217 179.05 129.005 190.681 119.973 190.27Z" fill="#E1E5E8"/>
<path d="M93.8358 139.36C99.3525 139.36 103.825 134.497 103.825 128.499C103.825 122.5 99.3525 117.637 93.8358 117.637C88.3191 117.637 83.8469 122.5 83.8469 128.499C83.8469 134.497 88.3191 139.36 93.8358 139.36Z" fill="#B5BCC5"/>
<path d="M93.8353 137.207C98.2938 137.207 101.908 133.308 101.908 128.499C101.908 123.689 98.2938 119.79 93.8353 119.79C89.3768 119.79 85.7625 123.689 85.7625 128.499C85.7625 133.308 89.3768 137.207 93.8353 137.207Z" fill="#F2F5F8"/>
<path d="M120.179 140.181C125.507 140.181 129.827 135.647 129.827 130.054C129.827 124.461 125.507 119.927 120.179 119.927C114.85 119.927 110.531 124.461 110.531 130.054C110.531 135.647 114.85 140.181 120.179 140.181Z" fill="#B5BCC5"/>
<path d="M120.178 138.608C124.42 138.608 127.859 134.778 127.859 130.054C127.859 125.33 124.42 121.501 120.178 121.501C115.937 121.501 112.498 125.33 112.498 130.054C112.498 134.778 115.937 138.608 120.178 138.608Z" fill="#F2F5F8"/>
<path d="M103.344 125.166C103.344 125.166 108.306 123.28 111.573 126.838C111.573 127.454 111.078 128.499 111.078 128.499C111.078 128.499 106.695 125.059 103.344 127.659C102.798 126.583 102.469 125.416 103.344 125.166Z" fill="#B5BCC5"/>
<path d="M129.015 127.412L145.55 121.501L145.392 122.964L129.544 129.586L129.015 127.412Z" fill="#B5BCC5"/>
<path d="M61.8486 200.274C61.4836 199.283 61.3403 198.224 61.4287 197.172C61.517 196.119 61.8349 195.099 62.36 194.183L66.6002 186.712C66.6002 186.712 67.1476 183.793 79.5557 182.059C91.9637 180.326 103.901 177.208 105.193 176.174C105.193 176.174 127.118 195.008 159.401 174.483C159.401 174.483 185.754 189.358 191.775 189.906C195.313 190.228 198.063 197.191 199.73 202.884C200.007 203.828 200.086 204.82 199.964 205.797C199.841 206.773 199.52 207.715 199.019 208.562C198.518 209.41 197.848 210.145 197.051 210.723C196.254 211.301 195.347 211.709 194.386 211.922C167.743 217.849 75.0981 235.67 61.8486 200.274Z" fill="#B5BDC5"/>
<path d="M154.017 138.512C150.891 145.952 148.756 149.082 146.249 148.804C143.633 148.514 142.806 144.282 142.981 140.56C148.242 141.583 151.619 140.483 154.017 138.512Z" fill="#D3D7DC"/>
<path d="M159.251 124.991C159.229 125.051 159.207 125.111 159.185 125.166C158.665 123.042 157.444 121.142 155.419 119.927C152.206 117.995 147.876 120.825 145.511 122.757C145.96 114.141 145.204 104.391 140.502 102.273C132.291 98.5778 131.957 99.3991 126.855 99.6728C122.065 99.9299 110.323 100.669 108.33 99.514C109.644 100.746 115.846 106.034 125.738 106.515C126.855 107.337 126.132 108.021 125.038 107.884C123.944 107.747 109.026 107.473 97.8042 93.3774C97.8042 93.3774 91.2955 105.552 91.4377 116.505C91.4377 116.505 87.2657 108.294 89.8666 96.5246C91.4377 87.766 95.4777 88.5866 95.4777 88.5866C95.4777 88.5866 92.7394 69.0174 111.488 70.7965C116.962 71.4808 126.269 79.5552 132.564 79.4182C138.859 79.2813 144.607 79.6921 144.607 79.6921C144.607 79.6921 153.502 78.3234 155.008 90.3667C155.073 92.7911 156.823 93.8836 161.577 94.4723C166.477 95.0789 165.683 107.747 159.251 124.991Z" fill="#D3D7DC"/>
<path d="M204.011 229.061C216.596 229.061 226.797 218.859 226.797 206.275C226.797 193.69 216.596 183.488 204.011 183.488C191.426 183.488 181.225 193.69 181.225 206.275C181.225 218.859 191.426 229.061 204.011 229.061Z" fill="#D3D7DC" stroke="white" stroke-width="15" stroke-miterlimit="10"/>
<path d="M212.79 204.366H206.301C206.251 204.366 206.201 204.356 206.155 204.337C206.109 204.318 206.067 204.29 206.031 204.254C205.996 204.219 205.968 204.177 205.949 204.131C205.929 204.084 205.919 204.035 205.919 203.985V197.496C205.915 196.993 205.712 196.512 205.355 196.157C204.997 195.803 204.514 195.604 204.011 195.604C203.508 195.604 203.025 195.803 202.667 196.157C202.31 196.512 202.107 196.993 202.103 197.496V203.985C202.103 204.086 202.062 204.183 201.991 204.254C201.919 204.326 201.822 204.366 201.721 204.366H195.233C194.726 204.366 194.241 204.567 193.883 204.925C193.525 205.283 193.324 205.768 193.324 206.275C193.324 206.781 193.525 207.266 193.883 207.624C194.241 207.982 194.726 208.183 195.233 208.183H201.721C201.771 208.183 201.821 208.193 201.867 208.212C201.913 208.231 201.955 208.259 201.991 208.295C202.026 208.33 202.054 208.372 202.074 208.419C202.093 208.465 202.103 208.515 202.103 208.565V215.054C202.107 215.557 202.31 216.038 202.667 216.393C203.025 216.747 203.508 216.946 204.011 216.946C204.514 216.946 204.997 216.747 205.355 216.393C205.712 216.038 205.915 215.557 205.919 215.054V208.565C205.919 208.515 205.929 208.465 205.948 208.419C205.968 208.372 205.996 208.33 206.031 208.295C206.067 208.259 206.109 208.231 206.155 208.212C206.201 208.193 206.251 208.183 206.301 208.183H212.79C213.296 208.183 213.781 207.982 214.139 207.624C214.497 207.266 214.698 206.781 214.698 206.275C214.698 205.768 214.497 205.283 214.139 204.925C213.781 204.567 213.296 204.366 212.79 204.366Z" fill="white"/>
</svg>
